<svg width="1600" height="123" viewBox="0 0 1600 123" fill="none" xmlns="http://www.w3.org/2000/svg">
<line y1="122.5" x2="1600" y2="122.5" stroke="#F5F5F5"/>
<path d="M804.923 3C804.923 4.65685 803.27 6 801.231 6C799.192 6 797.538 4.65685 797.538 3C797.538 1.34315 799.192 0 801.231 0C803.27 0 804.923 1.34315 804.923 3Z" fill="#E6D6FF"/>
<path d="M804.417 78.9413C802.597 80.1904 800.21 80.3139 798.22 79.262L782.851 71.1392C781.689 70.5252 782.047 68.7916 783.348 68.7355V68.7355C783.575 68.7257 783.802 68.7766 784.006 68.8831L790.491 72.2722C797.115 75.7338 805.033 75.3036 811.074 71.1538L816.383 67.507C816.582 67.3702 816.817 67.2922 817.061 67.2817V67.2817C818.386 67.2245 818.992 68.9397 817.909 69.6827L804.417 78.9413Z" fill="#E6D6FF"/>
<path d="M767.191 57V42.4545H775.97V44.017H768.953V48.9318H775.515V50.4943H768.953V55.4375H776.083V57H767.191ZM780.167 46.0909L782.781 50.5511L785.394 46.0909H787.326L783.803 51.5455L787.326 57H785.394L782.781 52.767L780.167 57H778.235L781.701 51.5455L778.235 46.0909H780.167ZM789.718 61.0909V46.0909H791.337V47.8239H791.536C791.659 47.6345 791.83 47.393 792.047 47.0994C792.27 46.8011 792.587 46.536 792.999 46.304C793.416 46.0672 793.979 45.9489 794.689 45.9489C795.608 45.9489 796.418 46.1785 797.118 46.6378C797.819 47.0971 798.366 47.7481 798.759 48.5909C799.152 49.4337 799.349 50.428 799.349 51.5739C799.349 52.7292 799.152 53.7306 798.759 54.5781C798.366 55.4209 797.822 56.0743 797.125 56.5384C796.429 56.9976 795.627 57.2273 794.718 57.2273C794.017 57.2273 793.456 57.1113 793.035 56.8793C792.613 56.6425 792.289 56.375 792.062 56.0767C791.834 55.7737 791.659 55.5227 791.536 55.3239H791.394V61.0909H789.718ZM791.366 51.5455C791.366 52.3693 791.486 53.0961 791.728 53.7259C791.969 54.3509 792.322 54.8409 792.786 55.196C793.25 55.5464 793.818 55.7216 794.491 55.7216C795.191 55.7216 795.776 55.5369 796.245 55.1676C796.718 54.7936 797.073 54.2917 797.31 53.6619C797.552 53.0275 797.672 52.322 797.672 51.5455C797.672 50.7784 797.554 50.0871 797.317 49.4716C797.085 48.8513 796.733 48.3613 796.259 48.0014C795.79 47.6368 795.201 47.4545 794.491 47.4545C793.809 47.4545 793.236 47.6274 792.772 47.973C792.308 48.3139 791.957 48.7921 791.721 49.4077C791.484 50.0185 791.366 50.7311 791.366 51.5455ZM803.581 42.4545V57H801.905V42.4545H803.581ZM811.083 57.2273C810.098 57.2273 809.234 56.9929 808.491 56.5241C807.752 56.0554 807.175 55.3996 806.758 54.5568C806.346 53.714 806.14 52.7292 806.14 51.6023C806.14 50.4659 806.346 49.474 806.758 48.6264C807.175 47.7789 807.752 47.1207 808.491 46.652C809.234 46.1832 810.098 45.9489 811.083 45.9489C812.068 45.9489 812.93 46.1832 813.668 46.652C814.412 47.1207 814.989 47.7789 815.401 48.6264C815.818 49.474 816.026 50.4659 816.026 51.6023C816.026 52.7292 815.818 53.714 815.401 54.5568C814.989 55.3996 814.412 56.0554 813.668 56.5241C812.93 56.9929 812.068 57.2273 811.083 57.2273ZM811.083 55.7216C811.831 55.7216 812.447 55.5298 812.93 55.1463C813.413 54.7628 813.77 54.2585 814.002 53.6335C814.234 53.0085 814.35 52.3314 814.35 51.6023C814.35 50.8731 814.234 50.1937 814.002 49.5639C813.77 48.9342 813.413 48.4252 812.93 48.0369C812.447 47.6487 811.831 47.4545 811.083 47.4545C810.335 47.4545 809.72 47.6487 809.237 48.0369C808.754 48.4252 808.396 48.9342 808.164 49.5639C807.932 50.1937 807.816 50.8731 807.816 51.6023C807.816 52.3314 807.932 53.0085 808.164 53.6335C808.396 54.2585 808.754 54.7628 809.237 55.1463C809.72 55.5298 810.335 55.7216 811.083 55.7216ZM818.585 57V46.0909H820.204V47.7386H820.318C820.517 47.1989 820.877 46.7609 821.398 46.4247C821.918 46.0885 822.505 45.9205 823.159 45.9205C823.282 45.9205 823.436 45.9228 823.621 45.9276C823.805 45.9323 823.945 45.9394 824.04 45.9489V47.6534C823.983 47.6392 823.853 47.6179 823.649 47.5895C823.45 47.5563 823.239 47.5398 823.017 47.5398C822.487 47.5398 822.013 47.651 821.596 47.8736C821.184 48.0914 820.858 48.3944 820.616 48.7827C820.38 49.1662 820.261 49.6042 820.261 50.0966V57H818.585ZM830.268 57.2273C829.217 57.2273 828.31 56.9953 827.548 56.5312C826.791 56.0625 826.206 55.4091 825.794 54.571C825.387 53.7282 825.183 52.7481 825.183 51.6307C825.183 50.5133 825.387 49.5284 825.794 48.6761C826.206 47.8191 826.779 47.1515 827.513 46.6733C828.251 46.1903 829.113 45.9489 830.098 45.9489C830.666 45.9489 831.227 46.0436 831.781 46.233C832.335 46.4223 832.839 46.7301 833.294 47.1562C833.748 47.5777 834.111 48.1364 834.38 48.8324C834.65 49.5284 834.785 50.3854 834.785 51.4034V52.1136H826.376V50.6648H833.081C833.081 50.0492 832.958 49.5 832.711 49.017C832.47 48.5341 832.124 48.1529 831.674 47.8736C831.229 47.5942 830.704 47.4545 830.098 47.4545C829.43 47.4545 828.853 47.6203 828.365 47.9517C827.882 48.2784 827.51 48.7045 827.25 49.2301C826.989 49.7557 826.859 50.3191 826.859 50.9205V51.8864C826.859 52.7102 827.001 53.4086 827.285 53.9815C827.574 54.5497 827.974 54.983 828.486 55.2812C828.997 55.5748 829.591 55.7216 830.268 55.7216C830.709 55.7216 831.106 55.66 831.461 55.5369C831.821 55.4091 832.131 55.2197 832.392 54.9688C832.652 54.7131 832.853 54.3958 832.996 54.017L834.615 54.4716C834.444 55.0208 834.158 55.5038 833.755 55.9205C833.353 56.3324 832.856 56.6544 832.264 56.8864C831.672 57.1136 831.007 57.2273 830.268 57.2273Z" fill="white"/>
</svg>
